<svg width="760" height="420" xmlns="http://www.w3.org/2000/svg" font-family="Inter, sans-serif" font-size="14px">
  <defs>
    <style>
      .bg-card { fill: #ffffff; stroke: #dee2e6; stroke-width: 1; }
      .bg-section-blue { fill: #e7f1ff; stroke: #6c757d; stroke-width: 1; stroke-dasharray: 4 2; }
      .bg-section-gray { fill: #f8f9fa; stroke: #6c757d; stroke-width: 1; stroke-dasharray: 4 2; }
      .text-title { font-size: 16px; font-weight: 600; fill: #0a58ca; }
      .text-heading { font-size: 14px; font-weight: 500; fill: #212529; }
      .text-body { font-size: 12px; fill: #495057; }
      .text-code { font-family: SFMono-Regular, Menlo, Monaco, Consolas, monospace; font-size: 11px; fill: #d63384; }
      .text-icon { font-size: 24px; }
      .text-icon-small { font-size: 16px; }
      .arrow-line { stroke: #0d6efd; stroke-width: 2; }
      .arrow-head { fill: #0d6efd; }
      .commit-box { fill: #e9ecef; stroke: #6c757d; stroke-width: 1; }
      .age-tag { fill: #0d6efd; font-weight: 600; }
      .processed { fill: #198754; }
      .pending { fill: #ffc107; }
      .new { fill: #0d6efd; }
    </style>
    <marker id="arrowhead" markerWidth="10" markerHeight="7" refX="0" refY="3.5" orient="auto">
      <polygon points="0 0, 10 3.5, 0 7" class="arrow-head" />
    </marker>
  </defs>

  <text x="360" y="30" text-anchor="middle" class="text-title">4. Incremental Query Updates</text>

  <g transform="translate(20, 60)">
    <rect width="700" height="352" rx="8" ry="8" class="bg-section-blue"/>
    <text x="350" y="30" text-anchor="middle" class="text-icon">🔄</text>
    <text x="350" y="55" text-anchor="middle" class="text-heading">Query Update Process</text>

    <!-- Commit Timeline -->
    <g transform="translate(40, 80)">
      <rect x="0" y="0" width="620" height="100" rx="4" ry="4" class="bg-section-gray"/>
      <text x="20" y="30" class="text-icon-small">📝</text>
      <text x="40" y="30" class="text-heading">Commit Timeline</text>

      <g transform="translate(40, 40)">
        <!-- Processed Commits -->
        <rect x="0" y="0" width="60" height="30" rx="2" ry="2" class="commit-box"/>
        <text x="30" y="20" text-anchor="middle" class="age-tag processed">1</text>

        <rect x="70" y="0" width="60" height="30" rx="2" ry="2" class="commit-box"/>
        <text x="100" y="20" text-anchor="middle" class="age-tag processed">2</text>

        <rect x="140" y="0" width="60" height="30" rx="2" ry="2" class="commit-box"/>
        <text x="170" y="20" text-anchor="middle" class="age-tag processed">3</text>

        <!-- Current Cache Age -->
        <rect x="210" y="0" width="60" height="30" rx="2" ry="2" class="commit-box"/>
        <text x="240" y="20" text-anchor="middle" class="age-tag pending">4</text>
        <text x="240" y="50" text-anchor="middle" class="text-body">Cache Age</text>

        <!-- New Commits -->
        <rect x="280" y="0" width="60" height="30" rx="2" ry="2" class="commit-box"/>
        <text x="310" y="20" text-anchor="middle" class="age-tag new">5</text>

        <rect x="350" y="0" width="60" height="30" rx="2" ry="2" class="commit-box"/>
        <text x="380" y="20" text-anchor="middle" class="age-tag new">6</text>
      </g>
    </g>

    <!-- Update Process -->
    <g transform="translate(40, 200)">
      <rect x="0" y="0" width="620" height="80" rx="4" ry="4" class="bg-section-gray"/>
      <text x="20" y="30" class="text-icon-small">🔄</text>
      <text x="40" y="30" class="text-heading">Update Process</text>

      <g transform="translate(40, 40)">
        <rect x="0" y="0" width="180" height="30" rx="2" ry="2" fill="#e7f1ff" stroke="#0d6efd"/>
        <text x="90" y="20" text-anchor="middle" class="text-body">1. Load cached results (age 4)</text>

        <rect x="200" y="0" width="180" height="30" rx="2" ry="2" fill="#e7f1ff" stroke="#0d6efd"/>
        <text x="290" y="20" text-anchor="middle" class="text-body">2. Process new commits (5, 6)</text>

        <rect x="400" y="0" width="160" height="30" rx="2" ry="2" fill="#e7f1ff" stroke="#0d6efd"/>
        <text x="480" y="20" text-anchor="middle" class="text-body">3. Update cache (age 6)</text>
      </g>
    </g>

    <!-- Key Points -->
    <g transform="translate(40, 300)">
      <rect x="0" y="0" width="620" height="40" rx="4" ry="4" fill="#f1f1f1" stroke="#dee2e6"/>
      <text x="20" y="25" class="text-icon-small">⚡</text>
      <text x="40" y="25" class="text-body"><tspan font-weight="500">Efficient:</tspan> Only processes new commits since last cache</text>
    </g>
  </g>
</svg> 