<?xml version="1.0" encoding="UTF-8"?>
<svg width="760" height="524" xmlns="http://www.w3.org/2000/svg" font-family="Inter, sans-serif" font-size="14px">
  <defs>
    <style>
      .bg-card { fill: #ffffff; stroke: #dee2e6; stroke-width: 1; }
      .bg-section-blue { fill: #e7f1ff; stroke: #6c757d; stroke-width: 1; stroke-dasharray: 4 2; }
      .bg-section-gray { fill: #f8f9fa; stroke: #6c757d; stroke-width: 1; stroke-dasharray: 4 2; }
      .text-title { font-size: 16px; font-weight: 600; fill: #0a58ca; }
      .text-heading { font-size: 14px; font-weight: 500; fill: #212529; }
      .text-body { font-size: 12px; fill: #495057; }
      .text-code { font-family: SFMono-Regular, Menlo, Monaco, Consolas, monospace; font-size: 11px; fill: #d63384; }
      .text-icon { font-size: 24px; }
      .text-icon-small { font-size: 16px; }
      .commit-line { stroke: #0d6efd; stroke-width: 2; }
      .commit-box { fill: #e9ecef; stroke: #6c757d; stroke-width: 1; }
      .graph-box { fill: #ffffff; stroke: #0d6efd; stroke-width: 2; }
      .key-tag { fill: #0d6efd; font-weight: 600; }
      .branch-line { stroke: #0d6efd; stroke-width: 2; }
    </style>
  </defs>

  <text x="360" y="30" text-anchor="middle" class="text-title">Distinct Commit Graphs</text>

  <g transform="translate(20, 40)">
    <rect width="700" height="480" rx="8" ry="8" class="bg-section-blue"/>
    
    <!-- Repository Title -->
    <text x="350" y="30" text-anchor="middle" class="text-icon">📁</text>
    <text x="350" y="55" text-anchor="middle" class="text-heading">Repository: /users/jane</text>

    <!-- First Commit Graph -->
    <g transform="translate(40, 80)">
      <rect x="0" y="0" width="300" height="140" rx="4" ry="4" class="graph-box"/>
      <text x="20" y="30" class="text-icon-small">📝</text>
      <text x="40" y="30" class="text-heading">Path: /users/jane/foo</text>
      
      <g transform="translate(80, 50)">
        <!-- Main branch -->
        <rect x="0" y="0" width="40" height="30" rx="2" ry="2" class="commit-box"/>
        <text x="20" y="20" text-anchor="middle" class="key-tag">C1</text>
        
        <rect x="50" y="0" width="40" height="30" rx="2" ry="2" class="commit-box"/>
        <text x="70" y="20" text-anchor="middle" class="key-tag">C2</text>
        
        <rect x="100" y="0" width="40" height="30" rx="2" ry="2" class="commit-box"/>
        <text x="120" y="20" text-anchor="middle" class="key-tag">C3</text>
        
        <!-- Feature branch -->
        <rect x="100" y="40" width="40" height="30" rx="2" ry="2" class="commit-box"/>
        <text x="120" y="60" text-anchor="middle" class="key-tag">C4</text>
        
        <!-- Lines -->
        <line x1="40" y1="15" x2="50" y2="15" class="commit-line"/>
        <line x1="90" y1="15" x2="100" y2="15" class="commit-line"/>
        <line x1="70" y1="30" x2="70" y2="55" class="branch-line"/>
        <line x1="70" y1="55" x2="100" y2="55" class="commit-line"/>
      </g>
    </g>

    <!-- Second Commit Graph -->
    <g transform="translate(360, 80)">
      <rect x="0" y="0" width="300" height="140" rx="4" ry="4" class="graph-box"/>
      <text x="20" y="30" class="text-icon-small">📝</text>
      <text x="40" y="30" class="text-heading">Path: /users/jane/bar</text>
      
      <g transform="translate(100, 50)">
        <!-- Main branch -->
        <rect x="0" y="0" width="40" height="30" rx="2" ry="2" class="commit-box"/>
        <text x="20" y="20" text-anchor="middle" class="key-tag">C1</text>
        
        <rect x="50" y="0" width="40" height="30" rx="2" ry="2" class="commit-box"/>
        <text x="70" y="20" text-anchor="middle" class="key-tag">C2</text>
        
        <!-- Feature branch -->
        <rect x="50" y="40" width="40" height="30" rx="2" ry="2" class="commit-box"/>
        <text x="70" y="60" text-anchor="middle" class="key-tag">C3</text>
        
        <!-- Lines -->
        <line x1="40" y1="15" x2="50" y2="15" class="commit-line"/>
        <line x1="20" y1="30" x2="20" y2="55" class="branch-line"/>
        <line x1="20" y1="55" x2="50" y2="55" class="commit-line"/>
      </g>
    </g>

    <!-- Third Commit Graph -->
    <g transform="translate(40, 240)">
      <rect x="0" y="0" width="300" height="180" rx="4" ry="4" class="graph-box"/>
      <text x="20" y="30" class="text-icon-small">📝</text>
      <text x="40" y="30" class="text-heading">Path: /users/jane/baz</text>
      
      <g transform="translate(100, 50)">
        <!-- Main branch -->
        <rect x="0" y="0" width="40" height="30" rx="2" ry="2" class="commit-box"/>
        <text x="20" y="20" text-anchor="middle" class="key-tag">C1</text>
        
        <rect x="50" y="0" width="40" height="30" rx="2" ry="2" class="commit-box"/>
        <text x="70" y="20" text-anchor="middle" class="key-tag">C2</text>
        
        <!-- Feature branch 1 -->
        <rect x="50" y="40" width="40" height="30" rx="2" ry="2" class="commit-box"/>
        <text x="70" y="60" text-anchor="middle" class="key-tag">C3</text>
        
        <!-- Feature branch 2 -->
        <rect x="50" y="80" width="40" height="30" rx="2" ry="2" class="commit-box"/>
        <text x="70" y="100" text-anchor="middle" class="key-tag">C4</text>
        
        <!-- Lines -->
        <line x1="40" y1="15" x2="50" y2="15" class="commit-line"/>
        <line x1="20" y1="30" x2="20" y2="55" class="branch-line"/>
        <line x1="20" y1="30" x2="20" y2="95" class="branch-line"/>
        <line x1="20" y1="55" x2="50" y2="55" class="commit-line"/>
        <line x1="20" y1="95" x2="50" y2="95" class="commit-line"/>
      </g>
    </g>

    <!-- Key Points -->
    <g transform="translate(40, 430)">
      <rect x="0" y="0" width="620" height="40" rx="4" ry="4" fill="#f1f1f1" stroke="#dee2e6"/>
      <text x="20" y="25" class="text-icon-small">⚡</text>
      <text x="40" y="25" class="text-body">
        <tspan font-weight="500">Independent Evolution:</tspan> Each key has its own commit history with branches
      </text>
    </g>
  </g>
</svg> 