<?xml version="1.0" encoding="UTF-8"?>
<svg data-bbox="0 0 90.7 90.6" viewBox="0 0 90.6 90.6" xmlns="http://www.w3.org/2000/svg" data-type="ugc">
    <g>
        <path fill="#704df3" d="M39.1 74.1v8.5H33v8h12.3V80.2z"/>
        <path fill="#5329f3" d="m49.8 14.9 5.1 5.1L69.5 5.4 74 9.9 59.4 24.5l20.7 20.8h10.5V0H64.1l.3.3z"/>
        <path fill="#5329f3" d="M20.6 82.6V55.5L10.4 45.3l34.9-34.9v.1L55.8 0H0v90.6h26.8v-8z"/>
        <path fill="#bbaaf9" d="m14.939 40.842 4.454 4.455-4.454 4.454-4.455-4.454z"/>
        <path fill="#5329f3" d="m45.238 34.591 4.455 4.455-4.455 4.455-4.454-4.455z"/>
        <path fill="none" d="m14.939 40.842 4.454 4.455-4.454 4.454-4.455-4.454z"/>
        <path fill="none" d="m54.852 20.1 4.455 4.455-.071.071-4.455-4.455z"/>
        <path fill="none" d="m45.238 34.591 4.455 4.455-4.455 4.455-4.454-4.455z"/>
        <path d="M80.1 45.3 59.3 24.5 73.9 9.9l-4.5-4.5L54.8 20l-5.1-5.1L64.4.3l-.3-.3h-8.3L45.4 10.4l-35 34.9 10.2 10.2v27h6.2v8.1H33v-8.1h6.2V74l6.2 6.2v10.4h45.3V45.2H80.2Zm-65.2 4.5-4.5-4.5 4.5-4.5 4.5 4.5zm30.4-6.3L40.8 39l4.5-4.5 4.5 4.5z" fill="#ffffff"/>
    </g>
</svg>
